# xmcd CD database file
#
# Track frame offsets:
#	150
#	11782
#	24847
#	43195
#	56830
#	70397
#	85230
#	96977
#	112510
#	123017
#	137982
#
# Disc length: 2020 seconds
#
# Revision: 2
# Processed by: cddbd v1.5.2PL0 Copyright (c) Steve Scherf et al.
# Submitted via: CDex 1.51
#
DISCID=8e07e20b
DTITLE=Billy Yates - Self Titled
DYEAR=1997
DGENRE=Country
TTITLE0=I Smell Smoke
TTITLE1=Would You Believe Me If I Lied
TTITLE2=Choices
TTITLE3=Honky Tonk Baby
TTITLE4=Mama Said
TTITLE5=Goodbye Makes The Saddest Sound
TTITLE6=When The Walls Come Tumblin' Down
TTITLE7=Broken Hearted Me
TTITLE8=Long Neck Connected To The Beer Joint
TTITLE9=Easier Said Than Done
TTITLE10=Flowers
EXTD=YEAR: 1997
EXTT0=
EXTT1=
EXTT2=
EXTT3=
EXTT4=
EXTT5=
EXTT6=
EXTT7=
EXTT8=
EXTT9=
EXTT10=
PLAYORDER=
